<svg xmlns="http://www.w3.org/2000/svg" width="256" height="256" viewBox="0 0 100 100"><rect width="100" height="100" rx="20" fill="#a47864"></rect><path fill="#fff" d="M23.37 65.68L23.37 65.68Q26.45 65.68 27.99 64.24Q29.53 62.81 29.53 59.45L29.53 59.45L29.53 28.58Q30.02 28.44 31.00 28.26Q31.98 28.09 32.96 28.09L32.96 28.09Q34.99 28.09 36.00 28.86Q37.02 29.63 37.02 31.59L37.02 31.59L37.02 60.08Q37.02 63.23 36.07 65.47Q35.13 67.71 33.52 69.14Q31.91 70.58 29.70 71.24Q27.50 71.91 24.91 71.91L24.91 71.91Q20.99 71.91 18.96 70.86Q16.93 69.81 16.93 67.71L16.93 67.71Q16.93 66.66 17.35 65.85Q17.77 65.05 18.12 64.63L18.12 64.63Q19.31 65.05 20.64 65.36Q21.97 65.68 23.37 65.68ZM75.52 28.58L75.52 28.58Q76.00 28.44 76.99 28.26Q77.97 28.09 79.02 28.09L79.02 28.09Q81.05 28.09 82.06 28.86Q83.08 29.63 83.08 31.59L83.08 31.59L83.08 70.93Q82.52 71.14 81.57 71.31Q80.63 71.49 79.58 71.49L79.58 71.49Q77.41 71.49 76.46 70.68Q75.52 69.88 75.52 67.99L75.52 67.99L75.52 52.66L55.98 52.66L55.98 70.93Q55.43 71.14 54.52 71.31Q53.61 71.49 52.48 71.49L52.48 71.49Q50.32 71.49 49.37 70.68Q48.43 69.88 48.43 67.99L48.43 67.99L48.43 28.58Q48.98 28.44 49.93 28.26Q50.88 28.09 51.93 28.09L51.93 28.09Q53.96 28.09 54.97 28.86Q55.98 29.63 55.98 31.59L55.98 31.59L55.98 46.57L75.52 46.57L75.52 28.58Z"></path></svg>